<svg xmlns="http://www.w3.org/2000/svg" version="1.1" xmlns:xlink="http://www.w3.org/1999/xlink" xmlns:svgjs="http://svgjs.com/svgjs" width="496.158" height="496.158"><svg version="1.1" id="SvgjsSvg1000" xmlns="http://www.w3.org/2000/svg" xmlns:xlink="http://www.w3.org/1999/xlink" x="0px" y="0px" viewBox="0 0 496.158 496.158" style="enable-background:new 0 0 496.158 496.158;" xml:space="preserve">
<path style="fill:#F25872;" d="M248.082,0.003C111.07,0.003,0,111.063,0,248.085c0,137.001,111.07,248.07,248.082,248.07
	c137.006,0,248.076-111.069,248.076-248.07C496.158,111.062,385.088,0.003,248.082,0.003z"></path>
<path style="fill:#FFFFFF;" d="M250.893,45.977c-33.643-0.066-60.949,19.903-61.051,69.484
	c-0.072,36.507,27.046,109.985,60.694,110.051c33.644,0.069,61.06-75.846,61.128-109.807
	C311.762,66.126,284.545,46.044,250.893,45.977z"></path>
<path style="fill:#F4E028;" d="M249.66,145.776c-15.175-0.029-27.493,4.257-27.537,26.632
	c-0.047,22.362,18.229,54.329,27.374,54.347c9.537,0.02,27.528-31.875,27.573-54.234
	C277.115,150.142,264.835,145.808,249.66,145.776z"></path>
<path style="fill:#FFFFFF;" d="M438.662,213.231c-4.334-33.367-27.705-57.828-76.871-51.452
	c-36.203,4.697-105.511,41.182-101.184,74.547c4.331,33.37,83.179,50.634,116.856,46.265
	C426.631,276.21,442.986,246.595,438.662,213.231z"></path>
<path style="fill:#F4E028;" d="M339.554,225.04c-1.957-15.047-7.815-26.699-30.004-23.818c-22.177,2.88-51.482,25.171-50.305,34.237
	c1.228,9.456,35.198,23.132,57.371,20.252C338.811,252.834,341.504,240.092,339.554,225.04z"></path>
<path style="fill:#FFFFFF;" d="M368.558,325.149c-18.87-31.247-80.167-80-108.971-62.609c-28.803,17.4-12.862,96.525,4.698,125.592
	c25.634,42.442,59.325,45.487,88.12,28.095C381.212,398.829,394.196,367.589,368.558,325.149z"></path>
<path style="fill:#F4E028;" d="M311.429,293.211c-11.562-19.141-43.767-36.995-51.593-32.266
	c-8.158,4.929-7.003,41.532,4.558,60.674c11.565,19.153,24.32,16.487,37.307,8.643C314.69,322.415,322.994,312.362,311.429,293.211z
	"></path>
<path style="fill:#FFFFFF;" d="M232.495,261.556c-29.086-16.919-90.85,35.041-107.926,64.396
	c-24.93,42.858-11.433,73.88,17.648,90.793c29.083,16.921,62.725,13.319,87.652-29.537
	C248.224,355.649,261.582,278.476,232.495,261.556z"></path>
<path style="fill:#F4E028;" d="M234.015,261.008c-8.237-4.794-39.795,13.785-51.037,33.112
	c-11.253,19.344-2.794,29.249,10.322,36.879c13.115,7.632,25.924,10.095,37.174-9.248
	C241.719,302.423,241.923,265.604,234.015,261.008z"></path>
<path style="fill:#FFFFFF;" d="M136.912,156.001c-48.863-8.418-73.227,15.048-78.936,48.21
	c-5.716,33.152,9.395,63.421,58.254,71.841c35.976,6.198,112.962-8.205,118.673-41.366
	C240.618,201.525,170.376,161.767,136.912,156.001z"></path>
<g>
	<path style="fill:#F4E028;" d="M187.111,199.636c-22.048-3.8-28.386,7.583-30.963,22.54c-2.574,14.951-0.412,27.814,21.638,31.611
		c22.036,3.795,56.613-8.855,58.166-17.87C237.569,226.521,209.149,203.433,187.111,199.636z"></path>
	<path style="fill:#F4E028;" d="M247.894,214.028c-19.253-0.039-34.907,14.797-34.942,33.117
		c-0.035,18.323,15.557,33.222,34.81,33.261c19.268,0.039,34.928-14.796,34.963-33.122
		C282.764,228.965,267.162,214.067,247.894,214.028z"></path>
</g>
<path style="fill:#E2CB23;" d="M247.874,226.817c-12.701-0.025-23.027,9.092-23.05,20.351
	c-0.025,11.266,10.267,20.423,22.968,20.448c12.716,0.025,23.042-9.092,23.065-20.354
	C270.88,236.003,260.589,226.846,247.874,226.817z"></path>
<g>
</g>
<g>
</g>
<g>
</g>
<g>
</g>
<g>
</g>
<g>
</g>
<g>
</g>
<g>
</g>
<g>
</g>
<g>
</g>
<g>
</g>
<g>
</g>
<g>
</g>
<g>
</g>
<g>
</g>
</svg><style>@media (prefers-color-scheme: light) { :root { filter: none; } }
</style></svg>