<?xml version="1.0" standalone="no"?>
<!DOCTYPE svg PUBLIC "-//W3C//DTD SVG 20010904//EN"
 "http://www.w3.org/TR/2001/REC-SVG-20010904/DTD/svg10.dtd">
<svg version="1.0" xmlns="http://www.w3.org/2000/svg"
 width="700.000000pt" height="700.000000pt" viewBox="0 0 700.000000 700.000000"
 preserveAspectRatio="xMidYMid meet">
<metadata>
Created by potrace 1.14, written by Peter Selinger 2001-2017
</metadata>
<g transform="translate(0.000000,700.000000) scale(0.100000,-0.100000)"
fill="#000000" stroke="none">
<path d="M3220 6994 c-182 -20 -243 -29 -360 -50 -1015 -183 -1909 -826 -2421
-1741 -214 -381 -346 -781 -416 -1258 -25 -173 -25 -717 0 -890 70 -477 202
-877 416 -1258 281 -503 667 -917 1146 -1229 448 -292 919 -467 1465 -544 177
-24 607 -30 798 -10 824 87 1549 432 2127 1011 493 492 830 1119 959 1783 55
283 61 346 61 692 0 346 -6 409 -61 692 -148 762 -575 1482 -1179 1989 -517
433 -1119 699 -1800 795 -114 15 -640 29 -735 18z m445 -655 c370 -45 608
-267 698 -652 18 -78 21 -123 21 -297 0 -186 -2 -217 -27 -330 -51 -236 -132
-470 -231 -671 l-63 -126 121 79 c263 172 609 316 881 365 110 20 373 23 460
4 369 -77 579 -292 650 -664 19 -99 19 -291 0 -379 -56 -268 -243 -471 -526
-572 -184 -66 -279 -81 -509 -81 -215 1 -324 13 -527 58 -57 13 -103 23 -103
22 0 -1 51 -41 113 -88 332 -251 565 -529 681 -809 61 -148 80 -237 80 -383 1
-148 -18 -226 -81 -347 -120 -230 -413 -428 -694 -469 -277 -40 -540 84 -760
359 -157 196 -278 480 -348 817 -16 76 -20 85 -25 60 -39 -169 -91 -359 -121
-440 -178 -477 -493 -774 -849 -801 -329 -25 -728 214 -865 518 -128 284 -49
669 208 1016 131 176 423 446 630 583 44 29 79 55 77 56 -2 2 -34 -4 -72 -13
-223 -51 -574 -77 -764 -55 -455 54 -769 263 -877 586 -25 75 -27 92 -27 255
-1 160 2 183 26 273 105 375 363 580 758 603 414 25 907 -173 1395 -558 15
-12 5 15 -37 97 -104 203 -191 453 -238 683 -68 339 -40 647 82 892 116 232
331 377 607 410 99 11 157 11 256 -1z"/>
<path d="M3343 4921 c-145 -50 -205 -148 -207 -341 -1 -166 56 -364 157 -541
l44 -77 -70 -36 c-59 -30 -73 -34 -87 -24 -9 7 -53 40 -97 74 -148 112 -343
198 -483 213 -228 24 -343 -62 -391 -293 -57 -277 25 -420 274 -473 119 -25
396 -2 508 42 13 5 17 -3 22 -38 4 -25 17 -70 31 -101 24 -54 24 -55 4 -62
-41 -13 -228 -146 -302 -215 -182 -170 -266 -359 -226 -506 27 -95 192 -228
342 -274 143 -45 249 -5 349 130 92 124 153 323 165 539 7 105 8 112 28 112
38 0 66 -12 66 -28 0 -14 1 -14 13 0 6 9 33 19 60 23 l47 6 0 -43 c0 -24 5
-82 10 -128 35 -282 159 -524 305 -595 48 -24 64 -27 129 -23 64 3 86 10 169
51 226 112 309 258 247 434 -58 166 -235 352 -461 484 l-69 40 25 49 c13 26
27 67 31 89 4 23 10 41 15 41 5 0 53 -12 106 -26 132 -35 327 -44 435 -20 180
40 269 150 268 329 -1 136 -52 296 -113 355 -154 149 -493 86 -820 -151 l-68
-49 -53 28 -53 27 42 69 c53 85 116 237 147 348 32 122 32 309 -1 394 -34 85
-91 139 -176 165 -90 28 -284 29 -362 2z"/>
</g>
</svg>
